ffmpeg version 4.2.7-0ubuntu0.1 Copyright (c) 2000-2022 the FFmpeg developers
  built with gcc 9 (Ubuntu 9.4.0-1ubuntu1~20.04.1)
  configuration: --prefix=/usr --extra-version=0ubuntu0.1 --toolchain=hardened --libdir=/usr/lib/x86_64-linux-gnu --incdir=/usr/include/x86_64-linux-gnu --arch=amd64 --enable-gpl --disable-stripping --enable-avresample --disable-filter=resample --enable-avisynth --enable-gnutls --enable-ladspa --enable-libaom --enable-libass --enable-libbluray --enable-libbs2b --enable-libcaca --enable-libcdio --enable-libcodec2 --enable-libflite --enable-libfontconfig --enable-libfreetype --enable-libfribidi --enable-libgme --enable-libgsm --enable-libjack --enable-libmp3lame --enable-libmysofa --enable-libopenjpeg --enable-libopenmpt --enable-libopus --enable-libpulse --enable-librsvg --enable-librubberband --enable-libshine --enable-libsnappy --enable-libsoxr --enable-libspeex --enable-libssh --enable-libtheora --enable-libtwolame --enable-libvidstab --enable-libvorbis --enable-libvpx --enable-libwavpack --enable-libwebp --enable-libx265 --enable-libxml2 --enable-libxvid --enable-libzmq --enable-libzvbi --enable-lv2 --enable-omx --enable-openal --enable-opencl --enable-opengl --enable-sdl2 --enable-libdc1394 --enable-libdrm --enable-libiec61883 --enable-nvenc --enable-chromaprint --enable-frei0r --enable-libx264 --enable-shared
  libavutil      56. 31.100 / 56. 31.100
  libavcodec     58. 54.100 / 58. 54.100
  libavformat    58. 29.100 / 58. 29.100
  libavdevice    58.  8.100 / 58.  8.100
  libavfilter     7. 57.100 /  7. 57.100
  libavresample   4.  0.  0 /  4.  0.  0
  libswscale      5.  5.100 /  5.  5.100
  libswresample   3.  5.100 /  3.  5.100
  libpostproc    55.  5.100 / 55.  5.100
Routing option strict to both codec and muxer layer
[h264 @ 0x564e6e2f9d40] Reinit context to 1280x720, pix_fmt: yuv420p
Input #0, mov,mp4,m4a,3gp,3g2,mj2, from '/var/www/html/project/media/video/original/Incendio_Pianoro.mp4':
  Metadata:
    major_brand     : mp42
    minor_version   : 1
    compatible_brands: isommp41mp42
    creation_time   : 2024-08-20T09:07:18.000000Z
  Duration: 00:06:15.98, start: 0.000000, bitrate: 4017 kb/s
    Stream #0:0(und): Video: h264 (High), 1 reference frame (avc1 / 0x31637661), yuv420p(tv, bt709, progressive, left), 1280x720, 4009 kb/s, SAR 1:1 DAR 16:9, 29.97 fps, 29.97 tbr, 30k tbn, 60k tbc (default)
    Metadata:
      creation_time   : 2024-08-20T09:07:18.000000Z
      handler_name    : Core Media Video
Input #1, png_pipe, from '/var/www/html/project/static/images/templates/logo.png':
  Duration: N/A, bitrate: N/A
    Stream #1:0: Video: png, 1 reference frame, rgba(pc), 1920x1080 [SAR 2835:2835 DAR 16:9], 25 tbr, 25 tbn, 25 tbc
[Parsed_scale_0 @ 0x564e6e324240] w:1280 h:720 flags:'bilinear' interl:0
[Parsed_scale_2 @ 0x564e6e321780] w:1280 h:720 flags:'bilinear' interl:0
Stream mapping:
  Stream #0:0 (h264) -> scale
  Stream #1:0 (png) -> scale
  overlay -> Stream #0:0 (libx264)
Press [q] to stop, [?] for help
[h264 @ 0x564e6e3176c0] Reinit context to 1280x720, pix_fmt: yuv420p
[Parsed_scale_0 @ 0x564e6eb21980] w:1280 h:720 flags:'bilinear' interl:0
[Parsed_scale_2 @ 0x564e6eb22140] w:1280 h:720 flags:'bilinear' interl:0
[graph 0 input from stream 0:0 @ 0x564e6eb23c00] w:1280 h:720 pixfmt:yuv420p tb:1/30000 fr:30000/1001 sar:1/1 sws_param:flags=2
[graph 0 input from stream 1:0 @ 0x564e6eb24c00] w:1920 h:1080 pixfmt:rgba tb:1/25 fr:25/1 sar:2835/2835 sws_param:flags=2
[Parsed_scale_0 @ 0x564e6eb21980] w:1280 h:720 fmt:yuv420p sar:1/1 -> w:1280 h:720 fmt:yuv420p sar:1/1 flags:0x2
[Parsed_setsar_1 @ 0x564e6eb21c00] w:1280 h:720 sar:1/1 dar:16/9 -> sar:1/1 dar:16/9
[Parsed_scale_2 @ 0x564e6eb22140] w:1920 h:1080 fmt:rgba sar:2835/2835 -> w:1280 h:720 fmt:yuva420p sar:1/1 flags:0x2
[Parsed_setsar_3 @ 0x564e6eb22540] w:1280 h:720 sar:1/1 dar:16/9 -> sar:1/1 dar:16/9
[Parsed_overlay_4 @ 0x564e6eb22e80] main w:1280 h:720 fmt:yuv420p overlay w:1280 h:720 fmt:yuva420p
[Parsed_overlay_4 @ 0x564e6eb22e80] [framesync @ 0x564e6eb22fa8] Selected 1/30000 time base
[Parsed_overlay_4 @ 0x564e6eb22e80] [framesync @ 0x564e6eb22fa8] Sync level 2
[libx264 @ 0x564e6e316c80] using SAR=1/1
[libx264 @ 0x564e6e316c80] using cpu capabilities: MMX2 SSE2Fast SSSE3 SSE4.2 AVX FMA3 BMI2 AVX2
[libx264 @ 0x564e6e316c80] profile High, level 3.1
[libx264 @ 0x564e6e316c80] 264 - core 155 r2917 0a84d98 - H.264/MPEG-4 AVC codec - Copyleft 2003-2018 - http://www.videolan.org/x264.html - options: cabac=1 ref=1 deblock=1:0:0 analyse=0x3:0x113 me=hex subme=2 psy=1 psy_rd=1.00:0.00 mixed_ref=0 me_range=16 chroma_me=1 trellis=0 8x8dct=1 cqm=0 deadzone=21,11 fast_pskip=1 chroma_qp_offset=0 threads=22 lookahead_threads=5 sliced_threads=0 nr=0 decimate=1 interlaced=0 bluray_compat=0 constrained_intra=0 bframes=3 b_pyramid=2 b_adapt=1 b_bias=0 direct=1 weightb=1 open_gop=0 weightp=1 keyint=250 keyint_min=25 scenecut=40 intra_refresh=0 rc_lookahead=10 rc=crf mbtree=1 crf=18.0 qcomp=0.60 qpmin=0 qpmax=69 qpstep=4 ip_ratio=1.40 aq=1:1.00
Output #0, mp4, to '/var/www/html/project/media/video/watermarks/Incendio_Pianoro.mp4':
  Metadata:
    major_brand     : mp42
    minor_version   : 1
    compatible_brands: isommp41mp42
    encoder         : Lavf58.29.100
    Stream #0:0: Video: h264 (libx264), 1 reference frame (avc1 / 0x31637661), yuv420p, 1280x720 [SAR 1:1 DAR 16:9], q=-1--1, 29.97 fps, 30k tbn, 29.97 tbc (default)
    Metadata:
      encoder         : Lavc58.54.100 libx264
    Side data:
      cpb: bitrate max/min/avg: 0/0/0 buffer size: 0 vbv_delay: -1
[Parsed_overlay_4 @ 0x564e6eb22e80] [framesync @ 0x564e6eb22fa8] Sync level 0
No more output streams to write to, finishing.
frame=11268 fps= 96 q=-1.0 Lsize=  298204kB time=00:06:15.87 bitrate=6499.2kbits/s speed= 3.2x    
[AVIOContext @ 0x564e6e2f80c0] Statistics: 0 seeks, 231 writeouts
video:298072kB audio:0kB subtitle:0kB other streams:0kB global headers:0kB muxing overhead: 0.044187%
Input file #0 (/var/www/html/project/media/video/original/Incendio_Pianoro.mp4):
  Input stream #0:0 (video): 11268 packets read (188449886 bytes); 11268 frames decoded; 
  Total: 11268 packets (188449886 bytes) demuxed
Input file #1 (/var/www/html/project/static/images/templates/logo.png):
  Input stream #1:0 (video): 1 packets read (111578 bytes); 1 frames decoded; 
  Total: 1 packets (111578 bytes) demuxed
Output file #0 (/var/www/html/project/media/video/watermarks/Incendio_Pianoro.mp4):
  Output stream #0:0 (video): 11268 frames encoded; 11268 packets muxed (305225973 bytes); 
  Total: 11268 packets (305225973 bytes) muxed
[AVIOContext @ 0x564e6e318940] Statistics: 2 seeks, 1168 writeouts
[libx264 @ 0x564e6e316c80] frame I:47    Avg QP:16.33  size:223989
[libx264 @ 0x564e6e316c80] frame P:3380  Avg QP:19.54  size: 62540
[libx264 @ 0x564e6e316c80] frame B:7841  Avg QP:23.50  size: 10625
[libx264 @ 0x564e6e316c80] consecutive B-frames:  6.7%  1.0%  1.4% 90.9%
[libx264 @ 0x564e6e316c80] mb I  I16..4:  2.2%  5.8% 91.9%
[libx264 @ 0x564e6e316c80] mb P  I16..4:  1.1%  2.1%  1.0%  P16..4: 50.4% 19.2% 17.6%  0.0%  0.0%    skip: 8.5%
[libx264 @ 0x564e6e316c80] mb B  I16..4:  0.3%  0.4%  0.1%  B16..8: 22.2%  8.6%  1.7%  direct:18.1%  skip:48.7%  L0:35.6% L1:29.7% BI:34.7%
[libx264 @ 0x564e6e316c80] 8x8 transform intra:41.8% inter:32.2%
[libx264 @ 0x564e6e316c80] coded y,uvDC,uvAC intra: 67.5% 48.7% 16.2% inter: 30.0% 14.1% 0.7%
[libx264 @ 0x564e6e316c80] i16 v,h,dc,p: 29% 26% 33% 12%
[libx264 @ 0x564e6e316c80] i8 v,h,dc,ddl,ddr,vr,hd,vl,hu: 15% 33% 23%  4%  5%  3%  6%  4%  7%
[libx264 @ 0x564e6e316c80] i4 v,h,dc,ddl,ddr,vr,hd,vl,hu: 16% 20% 15%  8%  8%  7%  9%  7% 10%
[libx264 @ 0x564e6e316c80] i8c dc,h,v,p: 53% 24% 16%  6%
[libx264 @ 0x564e6e316c80] Weighted P-Frames: Y:11.6% UV:0.7%
[libx264 @ 0x564e6e316c80] kb/s:6494.58
[AVIOContext @ 0x564e6e301040] Statistics: 188515438 bytes read, 1 seeks
[AVIOContext @ 0x564e6e2fd040] Statistics: 111578 bytes read, 0 seeks
